<?xml version="1.0" encoding="UTF-8"?>
<!DOCTYPE svg PUBLIC "-//W3C//DTD SVG 1.1//EN" "http://www.w3.org/Graphics/SVG/1.1/DTD/svg11.dtd">
<svg xmlns="http://www.w3.org/2000/svg" version="1.1" width="256px" height="256px" style="shape-rendering:geometricPrecision; text-rendering:geometricPrecision; image-rendering:optimizeQuality; fill-rule:evenodd; clip-rule:evenodd" xmlns:xlink="http://www.w3.org/1999/xlink">
<g><path style="opacity:1" fill="#474955" d="M 158.5,62.5 C 148.863,64.3256 139.197,65.9923 129.5,67.5C 118.881,65.5765 108.214,63.9098 97.5,62.5C 97.4482,45.5569 105.782,36.2236 122.5,34.5C 122.5,41.8333 122.5,49.1667 122.5,56.5C 126.167,56.5 129.833,56.5 133.5,56.5C 133.5,49.1667 133.5,41.8333 133.5,34.5C 151.061,35.7221 159.394,45.0555 158.5,62.5 Z"/></g>
<g><path style="opacity:1" fill="#000000" d="M 97.5,62.5 C 108.214,63.9098 118.881,65.5765 129.5,67.5C 139.197,65.9923 148.863,64.3256 158.5,62.5C 182.85,59.7012 207.184,59.8679 231.5,63C 232.626,66.7436 232.793,70.577 232,74.5C 229.809,75.8334 227.976,77.5 226.5,79.5C 223.668,83.6578 222.001,88.3245 221.5,93.5C 220.819,103.057 217.152,111.223 210.5,118C 200.318,121.178 189.985,122.345 179.5,121.5C 170.283,122.195 161.617,120.362 153.5,116C 150.96,113.795 148.793,111.295 147,108.5C 143.005,100.012 139.505,91.3458 136.5,82.5C 134.225,81.8926 131.891,81.5593 129.5,81.5C 126.546,81.2914 123.879,81.9581 121.5,83.5C 119.432,89.5381 117.265,95.5381 115,101.5C 111.12,113.36 102.953,119.86 90.5,121C 84.5092,121.499 78.5092,121.666 72.5,121.5C 64.2427,121.957 56.2427,120.79 48.5,118C 42.2984,111.763 38.6318,104.263 37.5,95.5C 36.6503,90.7679 35.4836,86.1012 34,81.5C 33.34,79.6763 32.1733,78.343 30.5,77.5C 29.2058,76.7101 28.0391,75.7101 27,74.5C 26.0441,70.428 26.5441,66.5946 28.5,63C 51.5302,59.9 74.5302,59.7333 97.5,62.5 Z"/></g>
<g><path style="opacity:1" fill="#454753" d="M 179.5,121.5 C 190.65,149.969 185.983,175.469 165.5,198C 144.922,214.913 122.922,216.913 99.5,204C 79.974,189.445 70.8074,169.945 72,145.5C 72.6612,137.689 74.4945,130.189 77.5,123C 75.6183,122.802 73.9516,122.302 72.5,121.5C 78.5092,121.666 84.5092,121.499 90.5,121C 102.953,119.86 111.12,113.36 115,101.5C 117.265,95.5381 119.432,89.5381 121.5,83.5C 123.879,81.9581 126.546,81.2914 129.5,81.5C 131.891,81.5593 134.225,81.8926 136.5,82.5C 139.505,91.3458 143.005,100.012 147,108.5C 148.793,111.295 150.96,113.795 153.5,116C 161.617,120.362 170.283,122.195 179.5,121.5 Z"/></g>
<g><path style="opacity:1" fill="#494b54" d="M 30.5,77.5 C 32.1733,78.343 33.34,79.6763 34,81.5C 35.4836,86.1012 36.6503,90.7679 37.5,95.5C 34.6181,94.3034 32.4514,92.3034 31,89.5C 30.5012,85.5138 30.3345,81.5138 30.5,77.5 Z"/></g>
<g><path style="opacity:1" fill="#464750" d="M 226.5,79.5 C 226.665,82.8499 226.498,86.1832 226,89.5C 225.252,91.751 223.752,93.0844 221.5,93.5C 222.001,88.3245 223.668,83.6578 226.5,79.5 Z"/></g>
<g><path style="opacity:1" fill="#464753" d="M 23.5,142.5 C 36.8333,142.5 50.1667,142.5 63.5,142.5C 62.2477,147.509 62.2477,152.509 63.5,157.5C 50.4957,157.667 37.4957,157.5 24.5,157C 18.2917,152.58 17.9583,147.747 23.5,142.5 Z"/></g>
<g><path style="opacity:1" fill="#454753" d="M 194.5,142.5 C 207.171,142.333 219.838,142.5 232.5,143C 239.167,147.667 239.167,152.333 232.5,157C 219.838,157.5 207.171,157.667 194.5,157.5C 194.5,152.5 194.5,147.5 194.5,142.5 Z"/></g>
<g><path style="opacity:1" fill="#464753" d="M 67.5,180.5 C 68.3764,180.369 69.0431,180.702 69.5,181.5C 71.6348,185.465 73.9681,189.298 76.5,193C 66.2457,200.044 56.079,207.21 46,214.5C 45.6667,218.167 45.3333,221.833 45,225.5C 39.9186,230.986 35.2519,230.653 31,224.5C 30.0852,218.056 30.4185,211.723 32,205.5C 44.1628,197.514 55.9962,189.18 67.5,180.5 Z"/></g>
<g><path style="opacity:1" fill="#464853" d="M 187.5,180.5 C 200.1,188.586 212.6,196.919 225,205.5C 226.581,211.723 226.915,218.056 226,224.5C 221.748,230.653 217.081,230.986 212,225.5C 211.667,221.833 211.333,218.167 211,214.5C 201.412,207.956 191.912,201.29 182.5,194.5C 181.417,193.635 181.251,192.635 182,191.5C 184.372,188.09 186.205,184.423 187.5,180.5 Z"/></g>
</svg>
